<svg width="186" height="186" viewBox="0 0 186 186" fill="none" xmlns="http://www.w3.org/2000/svg">
<path d="M31.0625 113.707V36.875H154.938V113.707V114.527L155.514 115.112L168.773 128.553L168.783 128.563C171.051 130.831 172.375 133.958 172.375 137.139C172.375 143.707 166.957 149.125 160.389 149.125H25.6113C19.0434 149.125 13.625 143.707 13.625 137.139C13.625 133.958 14.9483 130.838 17.2154 128.576L17.2213 128.57L17.2271 128.564L30.4869 115.111L31.0625 114.527V113.707ZM40.6875 44.5H38.6875V46.5V110.438V112.438H40.6875H145.312H147.312V110.438V46.5V44.5H145.312H40.6875ZM61.7826 77.2557L61.7901 77.2469L61.7975 77.2381L70.5369 66.721L73.7163 69.2485L67.1112 77.1898L66.0474 78.4688L67.1112 79.7477L73.7163 87.689L70.5369 90.2165L61.7975 79.6994L61.7901 79.6906L61.7826 79.6818L60.7508 78.4688L61.7826 77.2557ZM118.889 79.7477L119.953 78.4688L118.889 77.1898L112.284 69.2485L115.463 66.721L124.202 77.2381L124.21 77.2469L124.217 77.2557L125.249 78.4688L124.217 79.6818L124.21 79.6906L124.202 79.6994L115.463 90.2165L112.284 87.689L118.889 79.7477ZM37.418 120.062H36.5975L36.0134 120.639L22.572 133.898L22.5626 133.908L22.5534 133.917C21.7015 134.78 21.25 136.022 21.25 137.139C21.25 138.306 21.6546 139.427 22.489 140.261C23.3233 141.095 24.4445 141.5 25.6113 141.5H160.389C161.556 141.5 162.677 141.095 163.511 140.261C164.345 139.427 164.75 138.306 164.75 137.139C164.75 136.021 164.301 134.772 163.438 133.908L163.428 133.898L149.987 120.639L149.402 120.062H148.582H37.418ZM99.3578 54.3125L91.3057 102.625H86.6422L94.6943 54.3125H99.3578Z" stroke="#595959" stroke-width="4"/>
</svg>
