<svg width="184" height="164" viewBox="0 0 184 164" fill="none" xmlns="http://www.w3.org/2000/svg">
<path d="M124.091 83.493L163.527 118.642L161.14 120.677L161.123 120.692L161.107 120.706L135.771 143.288L135.754 143.303L135.738 143.318L133.118 145.759L93.3307 110.296L92 109.11L90.6693 110.296L62.3418 135.544L61.1041 135.765L61.1021 135.765L29.4791 141.371L29.4673 141.373L29.4555 141.375L24.0455 142.401L25.125 137.878L25.1285 137.864L25.1317 137.85L31.4202 109.664L31.4208 109.662L31.6388 108.69L59.9089 83.493L61.584 82L59.9089 80.507L20.2934 45.1976L22.6804 43.1626L22.6971 43.1483L22.7136 43.1337L48.0495 20.5516L48.066 20.5369L48.0822 20.5218L50.7018 18.0808L90.6693 53.704L92 54.8901L93.3307 53.704L121.721 28.3993C125.958 24.6234 131.517 22.6602 137.102 22.6602C142.686 22.6602 148.245 24.6234 152.482 28.3993C160.843 35.852 160.843 47.7496 152.482 55.2023L124.091 80.507L122.416 82L124.091 83.493ZM52.0145 28.4668L50.6895 27.2669L49.3489 28.4493L32.0989 43.6641L30.4072 45.1562L32.0911 46.6571L65.3333 76.286L66.6641 77.4721L67.9948 76.286L85.0651 61.0712L86.7402 59.5781L85.0651 58.0851L71.4089 45.9132L70.0781 44.7271L68.7474 45.9132L61.6328 52.2545L56.373 47.5664L63.1432 41.5321L64.805 40.051L63.1551 38.5567L52.0145 28.4668ZM140.622 54.1844L141.953 55.3705L143.284 54.1844L147.057 50.8212C149.969 48.2255 151.618 45.0687 151.618 41.7207C151.618 38.3727 149.969 35.2159 147.057 32.6203C144.132 30.0126 140.638 28.5898 137.102 28.5898C133.536 28.5898 130.226 30.0349 127.326 32.6203L123.552 35.9835L121.877 37.4766L123.552 38.9696L140.622 54.1844ZM118.128 43.1906L116.797 42.0045L115.466 43.1906L45.9271 105.171L43.6532 107.198L46.4168 108.479C53.3722 111.702 59.0251 116.758 62.6006 122.887L63.8331 124.999L65.6589 123.372L135.198 61.3915L136.873 59.8984L135.198 58.4054L118.128 43.1906ZM118.667 87.714L117.336 86.5279L116.005 87.714L98.7552 103.089L97.0801 104.582L98.7552 106.075L131.638 135.384L132.969 136.57L134.299 135.384L151.549 120.009L153.225 118.516L151.549 117.023L140.589 107.253L139.258 106.067L137.927 107.253L130.633 113.754L125.373 109.066L132.323 102.872L133.998 101.379L132.323 99.8859L118.667 87.714ZM40.5921 112.959L38.4375 112.152L37.9383 114.398L34.1648 131.375L33.5148 134.299L36.465 133.778L55.5118 130.415L58.0891 129.96L56.9731 127.592C53.8338 120.934 47.9307 115.708 40.5921 112.959Z" stroke="#595959" stroke-width="4"/>
</svg>
