<svg width="170" height="170" viewBox="0 0 170 170" fill="none" xmlns="http://www.w3.org/2000/svg">
<path d="M139.452 45.841C140.105 38.88 140.034 35.5436 139.971 32.576C139.967 32.383 139.962 32.1915 139.959 32.0008L139.92 30.0933L138.013 30.0417C137.54 30.029 137.03 30.0054 136.48 29.9799C135.421 29.931 134.211 29.875 132.813 29.875C130.604 29.875 127.814 30.0476 124.164 30.3814L124.16 30.3817C119.028 30.8598 113.621 31.8843 109.008 33.2635C104.503 34.6102 100.393 36.3977 98.1952 38.5956C93.2027 43.588 78.7274 61.7927 66.3136 77.972L66.3129 77.9729C57.1183 89.9712 50.3868 99.0697 47.1711 103.416C46.5509 104.254 46.0615 104.916 45.7104 105.387L44.6779 106.774L45.9002 107.996L62.1698 124.266L63.3949 125.491L64.7821 124.453C67.6785 122.286 77.818 114.536 92.193 103.521L92.1934 103.521C108.414 91.0862 126.557 76.6524 131.404 71.8048C132.511 70.6979 133.471 69.1054 134.301 67.3236C135.145 65.5124 135.916 63.3725 136.594 61.06C137.95 56.4362 138.974 50.9921 139.452 45.841ZM139.452 45.841L137.461 45.6543M139.452 45.841C139.452 45.8403 139.452 45.8397 139.452 45.8391L137.461 45.6543M137.461 45.6543C136.527 55.719 133.456 66.925 129.99 70.3906C125.259 75.1221 107.246 89.4617 90.9766 101.934C76.5955 112.953 66.4685 120.693 63.584 122.852L47.3145 106.582C47.6673 106.108 48.1584 105.444 48.7802 104.604C51.9983 100.254 58.7177 91.1721 67.9004 79.1895C80.3516 62.9614 94.7327 44.8865 99.6094 40.0098C103.241 36.3782 114.323 33.3069 124.346 32.373C127.977 32.041 130.696 31.875 132.813 31.875C134.175 31.875 135.28 31.9266 136.304 31.9745C136.871 32.0009 137.412 32.0262 137.959 32.041C137.963 32.2338 137.967 32.427 137.971 32.6216C138.034 35.5499 138.103 38.8049 137.461 45.6543ZM146.586 26.4864L146.587 26.5072L146.587 26.5074L146.587 26.5078L146.587 26.5115L146.588 26.5291L146.592 26.6039C146.595 26.6711 146.6 26.7729 146.606 26.9072C146.618 27.1758 146.634 27.5747 146.65 28.0887C146.682 29.117 146.715 30.6048 146.716 32.4315C146.719 36.0881 146.596 41.0864 146.095 46.4649C145.587 51.9101 144.914 57.6731 143.442 63.005C141.97 68.3367 139.737 73.0885 136.213 76.6131C129.899 82.9265 112.636 96.2464 96.2361 108.812C94.846 109.872 94.0571 110.476 93.3854 110.991C92.4465 111.71 91.7367 112.254 89.9341 113.621L89.0867 114.264L89.1457 115.326L89.6433 124.284C89.6434 124.285 89.6435 124.286 89.6435 124.287C89.9624 130.442 87.3653 136.357 82.5811 140.222L82.5725 140.229L68.9706 151.342L68.9592 151.352L64.7007 154.779L63.553 149.354L63.5485 149.332L60.0666 131.922L59.9479 131.328L59.5197 130.9L39.0998 110.48L38.6716 110.052L38.0778 109.933L20.6461 106.447L20.6389 106.446L20.6316 106.444L15.2209 105.404L18.6604 101.026L29.7714 87.4276L29.7784 87.4189C33.6435 82.6345 39.5582 80.0374 45.7138 80.3565C45.7147 80.3566 45.7156 80.3566 45.7165 80.3567L54.8423 80.8545L55.8984 80.9121L56.5405 80.0715C57.66 78.606 58.1926 77.8925 58.703 77.2088C59.2831 76.4318 59.8345 75.6932 61.186 73.9328L61.1867 73.9319C73.7237 57.5838 87.1336 40.3725 93.5529 33.9533C97.1183 30.3879 101.85 28.1159 107.132 26.6133C112.415 25.1102 118.119 24.412 123.534 23.9055C128.902 23.4139 133.986 23.25 137.627 23.25C139.444 23.25 140.911 23.2908 141.92 23.3314C142.424 23.3517 142.814 23.3719 143.075 23.3868C143.205 23.3943 143.304 23.4004 143.368 23.4046L143.439 23.4094L143.455 23.4105L143.458 23.4107L143.459 23.4108L143.459 23.4108L143.459 23.4108L143.497 23.4135L143.535 23.4148L146.484 23.5165L146.585 26.4654L146.586 26.4864ZM45.3223 86.9913L45.2941 86.9889L45.2659 86.9874C41.1894 86.7637 37.3283 88.6009 34.8097 91.702C34.8078 91.7043 34.806 91.7066 34.8041 91.7089L29.3362 98.3366L27.2304 100.889L30.4692 101.567L37.6079 103.061L38.8489 103.321L39.6133 102.309C39.8302 102.022 40.4866 101.166 41.3879 99.9916C41.9297 99.2854 42.5601 98.4637 43.2366 97.5808C45.0317 95.2384 47.142 92.4785 48.7447 90.3554L50.9314 87.4587L47.3145 87.1573L45.3223 86.9913ZM45.7098 132.21L50.4055 136.906C46.2018 140.488 40.9916 142.644 36.3823 144.199C33.8409 145.056 31.5381 145.662 29.8717 146.053C29.0396 146.249 28.3689 146.39 27.9098 146.482C27.6803 146.528 27.5039 146.561 27.3869 146.583C27.3284 146.594 27.2847 146.601 27.2567 146.606L27.2265 146.612L27.2204 146.613L27.2201 146.613L27.2198 146.613L27.2196 146.613L27.2014 146.616L27.1825 146.62L22.3391 147.547L23.3722 142.692L23.3767 142.671L23.3806 142.65L23.3806 142.65L23.3806 142.65L23.3807 142.65L23.3808 142.649L23.382 142.643L23.3882 142.611C23.394 142.582 23.403 142.536 23.4153 142.476C23.4399 142.354 23.4777 142.172 23.5289 141.936C23.6314 141.463 23.7876 140.773 24 139.921C24.4253 138.215 25.0731 135.867 25.9621 133.301C27.5729 128.652 29.7041 123.475 33.0997 119.434L37.8166 124.151C37.0367 125.25 36.2849 126.573 35.5951 127.935C34.5103 130.078 33.4839 132.513 32.6532 134.781L31.1767 138.813L35.2133 137.349C37.3714 136.566 39.6824 135.633 41.7762 134.578C43.1755 133.873 44.5387 133.083 45.7098 132.21ZM82.8427 122.685L82.5424 119.082L79.6496 121.252C77.0138 123.228 73.5075 125.926 70.9571 127.888C69.3251 129.143 68.0845 130.098 67.7138 130.37L66.675 131.131L66.9389 132.392L68.4331 139.531L69.1018 142.726L71.6447 140.679L78.4511 135.201C78.4512 135.201 78.4512 135.201 78.4513 135.201C81.6422 132.633 83.2323 128.737 83.0126 124.734L83.0111 124.706L83.0087 124.678L82.8427 122.685ZM99.9492 61.4258C99.9492 56.5546 103.784 52.6348 108.574 52.6348C113.405 52.6348 117.365 56.5953 117.365 61.4258C117.365 66.2563 113.405 70.2168 108.574 70.2168C103.784 70.2168 99.9492 66.2969 99.9492 61.4258Z" stroke="#595959" stroke-width="4"/>
</svg>
